<?xml version="1.0" standalone="no"?>
<!DOCTYPE svg PUBLIC "-//W3C//DTD SVG 20010904//EN"
 "http://www.w3.org/TR/2001/REC-SVG-20010904/DTD/svg10.dtd">
<svg version="1.0" xmlns="http://www.w3.org/2000/svg"
 width="500.000000pt" height="500.000000pt" viewBox="0 0 500.000000 500.000000"
 preserveAspectRatio="xMidYMid meet">
<metadata>
Created by potrace 1.11, written by Peter Selinger 2001-2013
</metadata>
<g transform="translate(0.000000,500.000000) scale(0.100000,-0.100000)"
fill="#000000" stroke="none">
<path d="M1072 4861 c2 -165 35 -311 110 -491 67 -160 177 -351 284 -493 24
-31 44 -60 44 -63 0 -3 6 -11 13 -18 6 -8 30 -35 52 -62 80 -97 168 -196 231
-261 35 -37 64 -71 64 -75 0 -13 -17 -9 -30 7 -7 8 -16 13 -20 10 -4 -3 -18 3
-31 13 -13 10 -35 23 -49 29 -23 10 -101 73 -245 196 -119 102 -475 466 -475
486 0 5 -7 11 -15 15 -20 7 -20 9 18 -65 58 -111 99 -182 137 -239 50 -75 53
-80 42 -80 -5 0 -54 31 -108 70 -88 62 -116 83 -184 140 -10 8 -37 30 -60 49
-108 88 -273 265 -343 368 -40 60 -58 77 -53 51 2 -7 6 -31 10 -53 4 -22 10
-47 13 -55 3 -8 7 -20 9 -27 18 -89 102 -267 182 -389 64 -98 62 -95 148 -199
52 -63 264 -280 264 -270 0 2 15 -12 34 -30 18 -19 36 -35 40 -35 3 0 14 -8
24 -17 30 -29 74 -66 117 -97 22 -17 42 -33 45 -36 3 -3 21 -17 40 -30 46 -31
167 -150 153 -150 -15 0 -108 44 -128 60 -8 7 -15 10 -15 7 0 -22 -582 324
-665 395 -60 51 -194 144 -186 129 6 -11 17 -26 23 -33 7 -7 33 -38 58 -68 61
-75 74 -90 161 -178 68 -69 105 -103 197 -180 15 -12 34 -28 42 -35 84 -71
340 -240 459 -303 13 -7 45 -36 72 -64 35 -37 44 -53 33 -57 -8 -3 -22 -2 -31
2 -10 4 -49 15 -88 25 -103 28 -228 70 -242 82 -7 6 -13 7 -13 3 0 -4 -7 -1
-17 6 -9 8 -18 13 -20 11 -5 -5 -145 49 -168 65 -11 7 -23 13 -27 13 -22 0 -1
-23 70 -76 42 -33 79 -61 82 -64 15 -15 71 -50 80 -50 5 0 10 -4 10 -10 0 -5
4 -10 9 -10 5 0 33 -16 63 -35 29 -20 132 -74 228 -121 96 -47 183 -90 192
-95 10 -5 22 -9 28 -9 6 0 29 -9 53 -19 48 -22 156 -62 174 -65 7 -1 16 -5 19
-9 4 -4 15 -7 25 -7 10 0 20 -4 24 -10 3 -5 -15 -8 -47 -5 -29 2 -53 4 -53 5
0 1 -18 3 -40 5 -55 4 -127 14 -145 20 -8 2 -28 7 -45 10 -49 8 -68 12 -115
25 -25 7 -52 14 -60 15 -8 2 -15 4 -15 5 0 2 -12 4 -55 13 -27 6 -53 14 -85
27 -11 5 -40 15 -65 23 -25 8 -54 18 -65 22 -11 5 0 -10 25 -33 24 -22 48 -38
52 -36 4 3 8 1 8 -4 0 -14 170 -122 290 -184 147 -76 503 -226 575 -243 17 -4
49 -16 67 -26 10 -5 25 -9 33 -9 9 0 13 -5 9 -11 -8 -13 -194 -6 -264 10 -25
6 -54 12 -65 15 -11 2 -33 9 -49 15 -16 7 -31 9 -34 6 -3 -3 0 -5 6 -5 6 0 17
-6 24 -13 15 -16 200 -89 282 -111 31 -9 82 -23 114 -32 31 -9 62 -19 67 -24
6 -4 24 -10 40 -14 53 -13 169 -74 198 -104 28 -29 47 -102 27 -102 -5 0 -11
-9 -15 -20 -3 -10 -43 -49 -88 -87 -45 -37 -87 -72 -93 -78 -6 -5 -44 -39 -84
-75 -176 -157 -425 -417 -556 -578 -11 -13 -27 -33 -38 -45 -42 -50 -188 -260
-243 -353 -58 -96 -143 -249 -143 -259 -1 -2 -10 -25 -21 -51 -21 -48 -20 -73
2 -32 15 28 164 178 178 178 5 0 11 4 13 9 5 14 139 96 203 125 70 31 194 68
206 61 4 -3 10 -2 13 3 6 10 74 15 201 15 114 0 210 -12 320 -40 96 -24 96
-24 86 -5 -30 60 -66 156 -77 206 -19 86 -22 121 -19 191 5 144 70 294 168
388 15 15 26 27 23 27 -4 0 13 17 36 37 24 21 49 44 56 51 32 29 29 8 -6 -39
-20 -28 -41 -58 -47 -66 -5 -9 -16 -23 -23 -32 -65 -78 -91 -120 -75 -116 16
4 109 28 153 39 76 21 492 163 555 191 17 7 39 15 50 18 11 3 85 29 165 57 80
28 152 53 160 55 8 2 34 10 58 19 23 8 43 15 45 15 1 0 9 2 17 5 23 7 114 27
120 26 3 -1 17 3 31 9 28 10 62 16 171 29 112 14 201 5 271 -27 56 -26 55 -26
51 2 -2 12 -6 43 -9 68 -4 29 -15 58 -30 75 -14 16 -25 32 -25 35 0 4 -20 12
-45 19 -29 8 -53 23 -65 40 -26 37 -104 87 -154 101 -69 19 -139 14 -296 -21
-106 -23 -138 -29 -218 -39 -110 -13 -342 -1 -342 19 0 4 -11 11 -25 14 -14 4
-25 11 -25 16 0 6 -6 10 -14 10 -15 0 -87 82 -101 115 -32 78 -16 192 37 268
12 18 65 78 119 134 53 56 105 119 116 140 21 42 24 136 5 155 -7 7 -12 18
-12 26 0 42 -181 240 -315 347 -27 21 -54 44 -60 49 -5 6 -28 24 -50 40 -22
17 -42 32 -45 36 -3 3 -59 45 -125 95 -66 49 -124 93 -130 97 -5 5 -68 52
-140 105 -71 53 -134 101 -140 105 -5 5 -28 22 -50 38 -22 16 -46 35 -53 41
-8 6 -48 39 -90 72 -43 33 -78 64 -80 69 -2 4 -10 8 -17 8 -7 0 -15 3 -17 8
-1 4 -32 32 -68 62 -92 78 -116 99 -174 150 -77 68 -305 298 -356 359 -25 30
-53 64 -62 75 -144 174 -235 321 -336 546 -9 20 -11 3 -10 -89z"/>
</g>
</svg>
